<svg xmlns="http://www.w3.org/2000/svg" width="166" height="40" fill="none" viewBox="0 0 166 40"><path fill="#ff3e00" d="M22.857 40h-5.714v-5.714h5.714zM11.429 28.571v5.715H5.714V28.57zm22.857 5.715H28.57V28.57h5.715zm-17.143-5.715h-5.714v-5.714h5.714z"/><path fill="#ff3e00" d="M28.571 28.571h-5.714v-5.714h5.714zM5.714 22.857H0v-5.714h5.714zm17.143 0h-5.714v-5.714h5.714zm17.143 0h-5.714v-5.714H40zm-22.857-5.714h-5.714v-5.714h5.714zm11.428 0h-5.714v-5.714h5.714zm-17.142-5.714H5.714V5.714h5.715zm22.857 0H28.57V5.714h5.715zM22.857 5.714h-5.714V0h5.714z"/><path fill="#1a1a2e" d="M116.967 7.951q3.042 0 5.724 1.08 2.71 1.05 4.619 2.94l-3.872 2.73q-1.216-1.17-2.904-1.8-1.659-.66-3.567-.66-2.406 0-4.425 1.05-1.992 1.02-3.153 2.79-1.162 1.74-1.161 3.87 0 2.1 1.161 3.84 1.162 1.71 3.153 2.7 1.99.99 4.425.99 2.904 0 5.172-1.38 2.294-1.41 3.179-3.66l.112-.45-8.463.09v-4.26h13.8v2.13q0 3.21-1.853 5.94-1.853 2.7-5.033 4.32-3.153 1.59-6.914 1.59-3.707 0-6.86-1.59-3.152-1.62-5.005-4.32-1.853-2.73-1.853-5.94 0-3.3 1.853-6.03 1.853-2.76 4.978-4.35 3.153-1.62 6.887-1.62M67.848 7.5q2.406 0 4.204.33.442.06.608.12 1.576.27 2.737.54 1.19.27 2.628.78l-1.548 4.32q-4.73-1.53-8.851-1.53-3.622 0-6.001 1.2-.581.36-.913.81-.304.45-.387 1.11 0 .75.25 1.02.386.48 1.243.66 1.05.24 2.102.33 1.05.09 2.628.15.774 0 1.19.03h1.796q4.011.21 6.278 1.35 3.457 1.86 3.457 5.34 0 .39-.027.6-.443 3.72-3.32 5.43-2.876 1.68-7.439 1.68-4.065 0-6.885-.54-2.794-.54-6.168-2.01l.608-4.56q2.6 1.32 5.448 2.04 2.85.72 5.532.72 2.184 0 3.899-.419 1.19-.3 1.964-.9.802-.63.94-1.77.082-.72-.221-1.17-.277-.45-.775-.66-.58-.36-1.465-.51t-2.185-.24h-1.632l-1.134-.09q-2.295-.12-3.9-.36-1.99-.21-3.54-.75-1.52-.54-2.516-1.68-1.383-1.35-1.383-3.3 0-.42.028-.63a6.53 6.53 0 0 1 1.133-3.42q1.08-1.56 2.711-2.37 1.356-.78 3.79-1.2 2.433-.45 5.116-.451M92.95 26.13l6.472-17.849h5.558l-8.656 23.07h-7.052L80.755 8.28h5.724zm56.733.72 7.163-18.51h6.277L166 31.35h-5.117l-1.853-15.359-6.361 15.36h-5.974l-6.582-15.36-1.632 15.36h-5.116l2.71-23.01h6.389z"/></svg>
