<svg xmlns="http://www.w3.org/2000/svg" width="76" height="20" fill="none" viewBox="0 0 76 20"><path fill="#93837e" d="M10.327 19.036H7.745v-2.582h2.582zm-5.163-5.163v2.581H2.582v-2.581zm10.326 2.581h-2.58v-2.581h2.582zm-7.745-2.581H5.164V11.29h2.581zm5.164 0h-2.582V11.29h2.582zM2.582 11.29H0V8.71h2.582zm7.745 0H7.745V8.71h2.582zm7.745 0h-2.581V8.71h2.581zM7.745 8.71H5.164V6.126h2.581zm5.164 0h-2.582V6.126h2.582zM5.164 6.127H2.582V3.546h2.582zm10.326 0h-2.58V3.546h2.582zm-5.163-2.581H7.745V.964h2.582z"/><path fill="#fff" d="M53.038 4.556a6.9 6.9 0 0 1 2.586.488q1.224.475 2.087 1.328l-1.75 1.234a3.8 3.8 0 0 0-1.312-.814 4.3 4.3 0 0 0-1.611-.298q-1.087 0-2 .475-.9.46-1.424 1.26a3.1 3.1 0 0 0-.525 1.75q0 .948.525 1.734.525.772 1.424 1.22.9.447 2 .447 1.311 0 2.336-.624 1.037-.637 1.437-1.653l.05-.204-3.823.041V9.015h6.234v.963q0 1.45-.837 2.684-.837 1.22-2.274 1.951-1.424.72-3.123.719-1.675 0-3.1-.719-1.425-.731-2.261-1.951a4.7 4.7 0 0 1-.837-2.684q0-1.491.837-2.724.837-1.248 2.25-1.966 1.424-.732 3.11-.732m-22.192-.203q1.087 0 1.9.149.199.027.275.054.711.122 1.236.244.537.122 1.188.352l-.7 1.952q-2.137-.69-3.999-.691-1.637 0-2.711.542-.263.163-.413.366-.137.204-.174.502 0 .339.112.46.175.217.562.299.475.108.95.149.474.04 1.187.068.35 0 .537.013h.812q1.812.095 2.837.61 1.562.84 1.562 2.413 0 .176-.013.27-.2 1.682-1.5 2.454-1.299.76-3.36.76-1.837 0-3.112-.245-1.262-.243-2.786-.908l.274-2.06a11.8 11.8 0 0 0 2.462.921 10.2 10.2 0 0 0 2.5.326q.986 0 1.76-.19.54-.135.888-.407.362-.284.425-.8.038-.325-.1-.528a.74.74 0 0 0-.35-.298 1.8 1.8 0 0 0-.662-.23 10 10 0 0 0-.987-.109h-.738l-.512-.04a19 19 0 0 1-1.762-.163 7 7 0 0 1-1.599-.339 2.66 2.66 0 0 1-1.137-.76A2 2 0 0 1 25.072 8q0-.19.013-.285.037-.84.512-1.545.487-.705 1.225-1.07.612-.354 1.712-.543a12.7 12.7 0 0 1 2.311-.203m11.342 8.416 2.924-8.064h2.511l-3.91 10.422h-3.187L36.676 4.706h2.587zm25.632.325 3.236-8.363h2.836l1.3 10.396H72.88l-.837-6.94-2.874 6.94H66.47l-2.974-6.94-.737 6.94h-2.312l1.225-10.396h2.886z"/></svg>